<?xml version="1.0" standalone="no"?>
<!DOCTYPE svg PUBLIC "-//W3C//DTD SVG 20010904//EN"
 "http://www.w3.org/TR/2001/REC-SVG-20010904/DTD/svg10.dtd">
<svg version="1.0" xmlns="http://www.w3.org/2000/svg"
 width="384.000000pt" height="384.000000pt" viewBox="0 0 384.000000 384.000000"
 preserveAspectRatio="xMidYMid meet">
<metadata>
Created by potrace 1.15, written by Peter Selinger 2001-2017
</metadata>
<g transform="translate(0.000000,384.000000) scale(0.100000,-0.100000)"
fill="#000000" stroke="none">
<path d="M1690 3738 c0 -5 -4 -7 -9 -3 -5 3 -12 1 -16 -5 -4 -6 -11 -8 -16 -5
-5 4 -9 1 -9 -4 0 -6 -7 -11 -15 -11 -8 0 -15 -4 -15 -9 0 -5 -13 -14 -30 -21
-16 -7 -30 -16 -30 -20 0 -4 -13 -13 -30 -20 -16 -7 -30 -16 -30 -21 0 -5 -4
-9 -10 -9 -5 0 -41 -20 -79 -45 -38 -25 -74 -45 -79 -45 -5 0 -17 -9 -27 -20
-10 -11 -24 -20 -32 -20 -7 0 -13 -4 -13 -9 0 -5 -10 -13 -22 -17 -13 -4 -36
-17 -53 -29 -16 -13 -46 -31 -65 -42 -19 -11 -51 -29 -70 -41 -19 -11 -38 -21
-42 -22 -4 0 -19 -12 -34 -25 -15 -14 -30 -22 -35 -19 -5 3 -9 0 -9 -5 0 -6
-6 -11 -14 -11 -7 0 -19 -7 -26 -15 -7 -9 -29 -23 -49 -32 -20 -9 -38 -20 -41
-23 -9 -12 -125 -85 -135 -85 -5 0 -17 -7 -25 -15 -8 -8 -28 -22 -45 -30 -16
-8 -39 -23 -49 -32 -10 -10 -23 -15 -28 -12 -4 3 -8 1 -8 -4 0 -5 -12 -15 -27
-23 -16 -8 -47 -29 -71 -47 -24 -17 -54 -35 -68 -38 -13 -3 -24 -11 -24 -17 0
-6 -3 -7 -7 -4 -6 7 -36 -29 -40 -48 -1 -5 -5 -21 -10 -35 -10 -30 -9 -1643 0
-1715 4 -27 8 -57 9 -65 1 -8 8 -22 17 -31 29 -31 139 -108 145 -102 3 4 6 1
6 -5 0 -7 7 -12 15 -12 9 0 28 -8 43 -19 15 -10 68 -44 117 -76 50 -31 101
-65 115 -74 14 -10 32 -20 40 -24 8 -4 29 -16 45 -27 17 -11 38 -23 48 -26 9
-4 17 -10 17 -14 0 -5 10 -12 22 -16 12 -3 31 -15 42 -25 11 -11 25 -19 32
-19 6 0 15 -7 18 -16 3 -8 10 -13 15 -10 5 3 14 -1 21 -9 7 -8 19 -15 26 -15
8 0 14 -4 14 -10 0 -5 7 -10 15 -10 8 0 15 -3 15 -8 0 -4 15 -13 33 -21 36
-16 149 -90 158 -104 3 -5 9 -7 12 -5 4 1 15 -5 27 -14 11 -10 20 -14 20 -10
0 4 6 0 13 -8 7 -8 18 -16 25 -18 8 -1 26 -11 40 -21 73 -50 172 -111 182
-111 5 0 10 -4 10 -10 0 -5 7 -10 15 -10 8 0 15 -4 15 -9 0 -5 25 -17 55 -26
44 -14 58 -15 70 -5 8 7 21 10 28 7 7 -3 19 4 26 14 6 11 16 17 22 14 5 -4 8
-3 7 2 -4 12 44 63 54 57 4 -3 8 0 8 5 0 21 18 11 67 -37 50 -49 120 -81 144
-66 8 5 22 10 31 11 9 1 46 23 81 48 36 25 69 45 74 45 6 0 18 9 28 20 10 11
26 20 37 20 10 0 18 5 18 11 0 5 4 8 9 5 4 -3 16 3 26 14 10 11 22 20 27 20 5
0 18 9 30 20 12 11 28 20 35 20 7 0 13 4 13 9 0 5 8 11 18 15 9 3 31 15 47 26
17 11 39 24 50 30 24 12 58 33 65 40 12 12 112 70 121 70 5 0 9 4 9 8 0 9 85
60 85 52 0 -3 12 6 25 18 23 22 69 46 79 42 2 -1 8 5 13 14 5 9 14 16 20 16 6
0 26 11 44 25 18 14 37 25 43 25 6 0 11 4 11 9 0 5 8 12 18 15 21 8 42 21 105
64 26 18 47 29 47 25 0 -4 4 -3 8 4 4 6 14 13 22 15 8 2 24 13 37 25 12 12 32
25 44 28 13 4 31 16 42 26 11 10 24 16 28 13 4 -2 13 5 19 16 6 12 16 18 23
14 7 -4 9 -4 5 1 -4 4 -3 14 3 21 6 8 14 31 18 51 7 42 8 1723 1 1763 -2 14
-15 36 -27 50 -13 14 -23 28 -23 32 0 5 -9 8 -20 8 -11 0 -20 4 -20 9 0 5 -8
11 -17 15 -21 7 -86 45 -93 55 -5 6 -19 14 -89 53 -20 11 -40 25 -46 32 -5 7
-13 13 -17 12 -4 -1 -16 7 -28 16 -11 10 -20 14 -20 10 0 -4 -7 2 -16 13 -8
11 -18 19 -22 18 -9 -3 -104 51 -123 69 -8 7 -31 22 -52 33 -21 11 -47 28 -57
38 -11 9 -26 17 -35 17 -8 0 -15 5 -15 10 0 6 -7 10 -15 10 -8 0 -15 4 -15 9
0 5 -10 13 -22 17 -19 6 -135 79 -148 94 -3 3 -26 16 -52 29 -27 13 -48 28
-48 33 0 5 -5 6 -10 3 -6 -3 -13 1 -16 9 -3 9 -10 13 -15 10 -5 -3 -9 -2 -9 3
0 4 -15 14 -32 22 -18 8 -49 26 -68 40 -42 31 -65 45 -107 67 -18 9 -33 20
-33 25 0 5 -7 9 -15 9 -8 0 -24 9 -35 20 -11 11 -31 22 -45 26 -14 3 -25 10
-25 14 0 4 -20 8 -45 7 -25 0 -45 -4 -45 -9 0 -4 -7 -8 -15 -8 -9 0 -36 -19
-61 -42 -25 -23 -54 -43 -65 -45 -11 -2 -38 16 -69 47 -27 27 -50 47 -50 43 0
-3 -6 -1 -12 4 -17 13 -98 14 -98 1z m120 -153 c47 -47 89 -85 95 -85 5 0 49
39 97 87 l87 86 33 -27 c32 -26 265 -176 274 -176 3 0 50 -29 105 -65 55 -36
102 -65 104 -65 3 0 49 -29 103 -63 54 -35 102 -66 108 -68 6 -2 59 -35 120
-73 60 -38 156 -99 213 -135 58 -36 109 -68 115 -70 6 -2 54 -33 108 -68 54
-34 103 -63 108 -63 12 0 14 -1015 3 -1464 l-6 -288 -51 -33 c-28 -18 -100
-63 -161 -100 -60 -38 -159 -99 -218 -137 -59 -37 -110 -68 -112 -68 -2 0 -53
-31 -112 -68 -235 -150 -303 -192 -308 -192 -2 0 -56 -34 -119 -75 -63 -41
-118 -75 -121 -75 -3 0 -46 -27 -96 -60 -50 -33 -93 -60 -97 -60 -4 0 -45 39
-93 86 l-86 85 -87 -87 c-74 -74 -90 -86 -104 -77 -10 7 -73 47 -142 89 -69
43 -219 137 -335 209 -115 72 -366 227 -557 345 l-348 215 -2 658 c-2 361 -3
755 -3 874 l0 217 195 122 c172 107 715 444 1052 653 65 40 123 79 129 87 6 8
14 14 18 14 4 0 44 -38 91 -85z"/>
<path d="M1680 3530 c-14 -11 -31 -20 -37 -20 -7 0 -13 -4 -13 -10 0 -5 -4
-10 -10 -10 -5 0 -55 -29 -110 -65 -55 -36 -102 -65 -105 -65 -2 0 -54 -31
-115 -70 -60 -38 -160 -101 -220 -140 -61 -38 -113 -70 -116 -70 -2 0 -50 -29
-105 -65 -55 -36 -102 -65 -104 -65 -3 0 -50 -29 -105 -65 -55 -36 -103 -65
-106 -65 -3 0 -32 -18 -65 -41 l-60 -40 3 -237 c1 -130 5 -291 8 -358 l5 -121
708 701 708 701 -63 63 c-35 34 -66 62 -68 62 -3 0 -16 -9 -30 -20z m-180
-322 c-112 -109 -207 -198 -211 -198 -5 0 -9 -6 -9 -14 0 -8 -9 -18 -21 -21
-11 -4 -18 -9 -16 -12 5 -5 -29 -43 -38 -43 -9 0 -45 -40 -45 -49 0 -5 -9 -13
-21 -16 -11 -4 -18 -9 -16 -12 5 -5 -29 -43 -38 -43 -9 0 -45 -40 -45 -49 0
-5 -9 -13 -20 -16 -11 -4 -18 -10 -15 -15 3 -5 -4 -11 -15 -15 -11 -4 -18 -11
-15 -16 4 -5 1 -9 -4 -9 -13 0 -51 -37 -51 -49 0 -5 -9 -13 -20 -16 -11 -4
-18 -10 -15 -15 3 -5 -4 -11 -15 -15 -11 -4 -18 -11 -15 -16 4 -5 1 -9 -4 -9
-13 0 -51 -37 -51 -49 0 -5 -9 -13 -20 -16 -11 -4 -18 -10 -15 -15 3 -5 -4
-11 -15 -15 -11 -4 -18 -11 -15 -16 4 -5 -1 -9 -9 -9 -9 0 -16 -7 -16 -15 0
-8 -7 -15 -15 -15 -8 0 -15 -7 -15 -15 0 -8 -5 -15 -11 -15 -6 0 -37 -28 -70
-62 -32 -34 -59 -57 -60 -52 0 5 -4 0 -9 -11 -10 -24 -10 -23 -11 239 0 171 2
190 19 205 21 18 48 37 77 51 11 6 34 19 50 30 17 11 38 23 48 26 9 4 17 9 17
13 0 8 73 45 78 40 2 -2 8 4 13 14 6 9 17 17 24 17 8 0 15 4 15 9 0 5 9 13 21
16 12 4 32 16 44 27 13 11 26 18 28 17 3 -2 16 5 29 16 13 11 33 26 46 33 12
6 32 18 45 25 12 6 31 19 42 28 11 9 30 20 43 24 12 3 22 11 22 16 0 5 7 9 15
9 8 0 15 4 15 9 0 5 9 13 20 16 12 4 50 25 85 48 99 65 152 97 159 97 3 0 15
8 26 18 11 9 24 17 28 16 4 0 16 8 27 19 11 10 29 23 40 28 11 5 34 17 50 27
76 47 42 4 -145 -180z"/>
<path d="M2031 3488 l-63 -62 708 -703 c389 -386 709 -701 710 -700 2 1 4 164
6 361 l3 359 -180 112 c-99 62 -349 217 -555 345 -206 128 -417 259 -468 291
-51 33 -94 59 -95 59 -1 0 -31 -28 -66 -62z m164 -106 c11 -7 32 -17 48 -23
15 -6 27 -15 27 -19 0 -5 10 -12 23 -16 19 -6 38 -19 93 -64 7 -5 15 -6 18 -3
3 4 6 1 6 -5 0 -7 8 -12 18 -12 11 0 27 -9 37 -20 10 -11 23 -20 28 -20 6 0
25 -11 43 -25 18 -14 37 -25 43 -25 6 0 11 -4 11 -10 0 -5 7 -10 15 -10 8 0
15 -3 15 -8 0 -4 14 -13 32 -21 17 -8 39 -22 50 -33 10 -10 18 -16 18 -13 0 6
14 -2 65 -35 17 -11 38 -23 48 -26 9 -4 17 -10 17 -14 0 -4 11 -11 25 -14 14
-4 25 -11 25 -16 0 -6 6 -10 13 -10 7 0 22 -8 33 -18 10 -10 26 -21 34 -25 27
-14 58 -33 74 -46 9 -7 16 -10 16 -5 0 4 10 -2 23 -13 12 -12 45 -34 74 -50
28 -15 63 -38 77 -50 14 -13 26 -20 26 -16 0 3 12 -4 26 -18 l26 -24 -3 -210
c-1 -115 -4 -213 -6 -218 -3 -4 -223 210 -491 475 -665 661 -673 669 -666 680
4 6 9 6 13 2 3 -5 15 -15 26 -22z"/>
<path d="M1238 2702 c-364 -363 -689 -685 -720 -716 -32 -31 -58 -60 -58 -65
0 -12 1427 -1426 1442 -1428 7 -1 337 319 733 712 l720 715 -575 572 c-316
314 -643 639 -727 721 l-151 150 -664 -661z m696 503 c3 -8 11 -14 18 -13 7 2
12 -2 11 -9 -2 -6 6 -15 17 -18 11 -4 18 -11 15 -16 -4 -5 1 -9 10 -9 9 0 19
-9 22 -20 3 -11 9 -18 13 -15 5 3 11 -4 15 -15 3 -11 9 -19 13 -17 4 1 17 -8
30 -20 12 -13 19 -23 15 -24 -5 0 2 -4 15 -9 12 -5 22 -17 22 -25 0 -9 4 -14
9 -10 5 3 12 -4 16 -15 3 -11 9 -19 13 -17 4 1 17 -8 30 -20 12 -13 19 -23 15
-24 -5 0 2 -4 15 -9 12 -5 22 -17 22 -25 0 -9 4 -14 9 -10 5 3 12 -4 16 -15 3
-11 9 -19 13 -17 4 1 17 -8 30 -20 12 -13 19 -23 15 -23 -5 -1 2 -6 14 -13 12
-7 22 -15 22 -19 1 -5 4 -8 9 -9 4 0 12 -9 17 -19 6 -10 13 -19 18 -19 10 -1
49 -41 40 -41 -5 -1 2 -6 14 -13 12 -7 22 -15 22 -19 1 -5 4 -7 7 -5 3 1 12
-9 19 -23 8 -14 14 -22 15 -18 0 4 153 -145 341 -332 l341 -339 -144 -143
c-78 -79 -146 -142 -150 -141 -4 2 -10 -6 -13 -17 -4 -11 -10 -18 -15 -15 -4
3 -10 -4 -13 -15 -3 -11 -13 -20 -22 -20 -9 0 -14 -4 -10 -9 3 -5 -4 -12 -15
-16 -11 -3 -19 -12 -17 -18 1 -7 -3 -11 -10 -10 -6 2 -15 -6 -18 -17 -4 -11
-10 -18 -15 -15 -5 3 -11 -4 -15 -15 -3 -11 -9 -19 -13 -17 -4 1 -8 -2 -10 -8
-2 -5 -12 -14 -22 -20 -10 -5 -19 -14 -20 -20 -1 -5 -6 -9 -10 -8 -5 2 -12 -6
-15 -17 -4 -11 -10 -18 -15 -15 -5 3 -11 -4 -15 -15 -3 -11 -12 -19 -18 -17
-7 1 -11 -3 -10 -10 2 -6 -6 -15 -17 -18 -11 -4 -18 -11 -15 -16 4 -5 -1 -9
-9 -9 -8 0 -18 -9 -21 -20 -4 -11 -10 -18 -15 -15 -5 3 -11 -4 -15 -15 -3 -11
-9 -19 -13 -17 -4 1 -8 -2 -10 -8 -2 -5 -13 -15 -25 -22 -12 -7 -19 -12 -14
-13 9 0 -30 -40 -40 -41 -5 0 -13 -10 -20 -22 -6 -12 -14 -21 -17 -19 -3 1
-15 -7 -26 -18 -11 -11 -18 -20 -15 -20 6 0 -32 -39 -41 -42 -4 -2 -95 -90
-202 -197 -160 -159 -197 -191 -206 -179 -6 8 -15 17 -21 19 -5 2 -9 7 -8 11
2 4 -6 10 -17 13 -11 4 -18 10 -15 15 3 4 -4 10 -15 13 -11 3 -20 13 -20 22 0
9 -4 14 -9 10 -5 -3 -12 4 -16 15 -3 11 -9 19 -13 17 -4 -1 -17 8 -29 20 -13
13 -20 23 -15 24 4 0 -3 4 -15 9 -13 5 -23 17 -23 25 0 9 -4 14 -9 10 -5 -3
-12 4 -16 15 -3 11 -9 19 -13 17 -4 -1 -177 167 -384 373 -206 206 -438 436
-515 511 -77 75 -140 143 -140 152 0 9 151 164 334 344 184 180 475 469 648
641 173 171 318 312 323 312 6 0 12 -7 16 -15z"/>
<path d="M420 1462 l0 -362 100 -65 c55 -36 102 -65 105 -65 2 0 49 -29 104
-65 55 -36 103 -65 105 -65 3 0 50 -29 105 -65 55 -36 105 -65 111 -65 5 0 10
-4 10 -10 0 -5 5 -10 10 -10 6 0 56 -29 111 -65 55 -36 102 -65 104 -65 2 0
53 -31 112 -68 264 -168 304 -192 316 -192 7 0 38 26 70 58 l57 58 -517 514
c-285 282 -605 599 -710 704 l-193 191 0 -363z m140 101 c0 -7 5 -13 10 -13
13 0 50 -37 43 -43 -2 -3 5 -8 16 -12 12 -3 19 -10 16 -15 -3 -5 4 -11 15 -15
11 -3 20 -13 20 -21 0 -8 7 -14 15 -14 8 0 15 -7 15 -15 0 -8 7 -15 16 -15 8
0 13 -4 9 -9 -3 -5 4 -12 15 -16 11 -4 18 -10 15 -15 -3 -5 4 -11 15 -15 11
-3 20 -11 20 -16 0 -9 36 -49 45 -49 8 0 825 -813 825 -821 0 -14 -27 -10 -40
6 -7 8 -36 26 -66 41 -30 14 -54 30 -54 35 0 5 -6 9 -13 9 -7 0 -23 9 -35 20
-12 12 -22 18 -22 14 0 -3 -7 0 -16 7 -21 17 -55 37 -76 45 -10 3 -18 10 -18
15 0 5 -5 9 -10 9 -12 0 -61 33 -97 64 -13 11 -23 16 -23 13 0 -7 -160 89
-170 102 -3 3 -21 15 -40 25 -19 10 -53 31 -75 46 -22 14 -47 29 -55 33 -8 4
-28 16 -45 27 -16 11 -37 23 -45 27 -8 3 -17 9 -20 12 -9 11 -125 85 -132 86
-4 0 -15 7 -25 15 -10 9 -22 18 -28 20 -44 20 -45 25 -45 252 0 216 0 218 20
206 11 -7 20 -18 20 -25z"/>
<path d="M3045 1488 c-181 -181 -498 -496 -703 -701 l-372 -371 60 -61 60 -60
43 24 c39 22 278 171 977 606 l275 171 3 362 c1 199 -1 362 -5 361 -5 -1 -156
-149 -338 -331z m266 -108 l0 -213 -27 -29 c-15 -15 -33 -28 -40 -28 -7 0 -14
-4 -16 -8 -4 -11 -101 -67 -110 -64 -5 1 -8 -2 -8 -7 0 -5 -12 -15 -27 -22
-16 -8 -59 -34 -98 -59 -38 -25 -72 -45 -75 -44 -3 1 -10 -6 -16 -14 -6 -8
-16 -12 -21 -9 -6 4 -13 1 -16 -7 -3 -8 -23 -22 -44 -32 -21 -10 -40 -21 -43
-24 -13 -16 -133 -91 -137 -86 -3 2 -16 -6 -30 -20 -13 -13 -29 -22 -34 -19
-5 4 -9 1 -9 -4 0 -6 -5 -11 -10 -11 -6 0 -19 -8 -30 -17 -10 -10 -36 -27 -57
-38 -21 -11 -50 -29 -65 -41 -51 -41 -156 -94 -175 -88 -13 4 -14 3 -5 -4 10
-7 7 -13 -13 -26 -14 -9 -30 -14 -36 -11 -5 4 73 88 173 187 101 99 188 184
193 190 6 5 31 31 57 56 25 26 51 52 57 57 5 6 32 33 59 60 417 417 596 594
599 591 2 -2 4 -99 4 -216z"/>
</g>
</svg>
